# AST/ASF file generated using VICON BodyLanguage
# -----------------------------------------------
:version 1.10
:name VICON
:units
  mass 1.0
  length 0.45
  angle deg
:documentation
   .ast/.asf automatically generated from VICON data using
   VICON BodyBuilder and BodyLanguage model FoxedUp or BRILLIANT.MOD
:root
   order TX TY TZ RX RY RZ
   axis XYZ
   position 0 0 0  
   orientation 0 0 0 
:bonedata
  begin
     id 1 
     name lhipjoint
     direction 0.707368 -0.647095 0.284426 
     length 2.60678 
     axis 0 0 0  XYZ
  end
  begin
     id 2 
     name lfemur
     direction 0.34202 -0.939693 0  
     length 6.63812  
     axis 0 0 20  XYZ
    dof rx ry rz
    limits (-160.0 20.0)
           (-70.0 70.0)
           (-60.0 70.0)
  end
  begin
     id 3 
     name ltibia
     direction 0.34202 -0.939693 0   
     length 7.51178   
     axis 0 0 20   XYZ
    dof rx
    limits (-10.0 170.0)
  end
  begin
     id 4 
     name lfoot
     direction 0.121251 -0.333133 0.935051   
     length 1.83716   
     axis -90 7.62852e-016 20   XYZ
    dof rx rz
    limits (-45.0 90.0)
           (-70.0 20.0)
  end
  begin
     id 5 
     name ltoes
     direction 1.53611e-011 -4.21962e-011 1   
     length 0.916133   
     axis -90 7.62852e-016 20   XYZ
    dof rx
    limits (-90.0 20.0)
  end
  begin
     id 6 
     name rhipjoint
     direction -0.692419 -0.660507 0.290321   
     length 2.55385  
     axis 0 0 0  XYZ 
  end
  begin
     id 7 
     name rfemur
     direction -0.34202 -0.939693 0   
     length 7.29079   
     axis 0 0 -20   XYZ
    dof rx ry rz
    limits (-160.0 20.0)
           (-70.0 70.0)
           (-70.0 60.0)
  end
  begin
     id 8 
     name rtibia
     direction -0.34202 -0.939693 0   
     length 7.47143   
     axis 0 0 -20   XYZ
    dof rx
    limits (-10.0 170.0)
 end
 begin
     id 9 
     name rfoot
     direction -0.119907 -0.329441 0.936532   
     length 1.79439  
     axis -90 -7.62852e-016 -20   XYZ
    dof rx rz
    limits (-45.0 90.0)
           (-20.0 70.0)
  end
  begin
     id 10 
     name rtoes
     direction -1.53571e-011 -4.21961e-011 1   
     length 0.896039   
     axis -90 -7.62852e-016 -20   XYZ
    dof rx
    limits (-90.0 20.0)
  end
  begin
     id 11 
     name lowerback
     direction 0.0367721 0.992912 -0.113016   
     length 1.73542   
     axis 0 0 0   XYZ
    dof rx ry rz
    limits (-20.0 45.0)
           (-30.0 30.0)
           (-30.0 30.0)
  end
  begin
     id 12 
     name upperback
     direction -0.000314626 0.990678 0.136227   
     length 1.7514   
     axis 0 0 0   XYZ
    dof rx ry rz
    limits (-20.0 45.0)
           (-30.0 30.0)
           (-30.0 30.0)
  end
  begin
     id 13 
     name thorax
     direction -0.0226159 0.981151 0.191917   
     length 1.71471   
     axis 0 0 0   XYZ
    dof rx ry rz
    limits (-20.0 45.0)
           (-30.0 30.0)
           (-30.0 30.0)
  end
  begin
     id 14 
     name lowerneck
     direction 0.0219333 0.998071 0.0580739   
     length 1.65882   
     axis 0 0 0   XYZ
    dof rx ry rz
    limits (-20.0 45.0)
           (-30.0 30.0)
           (-30.0 30.0)
  end
  begin
     id 15 
     name upperneck
     direction 0.0384529 0.980058 -0.194957   
     length 1.6612   
     axis 0 0 0   XYZ
    dof rx ry rz
    limits (-20.0 45.0)
           (-30.0 30.0)
           (-30.0 30.0)
  end
  begin
     id 16
     name head
     direction 0.00592123 0.997421 -0.0715234  
     length 1.68077  
     axis 0 0 0   XYZ
    dof rx ry rz
    limits (-20.0 45.0)
           (-30.0 30.0)
           (-30.0 30.0)
  end
  begin
     id 17 
     name lclavicle
     direction 0.904803 0.417826 0.0821728  
     length 3.42227  
     axis 0 0 0   XYZ
    dof ry rz
    limits (-20.0 10.0)
           (0.0 20.0)
  end
  begin
     id 18 
     name lhumerus
     direction 1 -4.48965e-011 -2.68786e-027   
     length 5.11878   
     axis -180 -30 -90   XYZ
    dof rx ry rz
    limits (-60.0 90.0)
           (-90.0 90.0)
           (-90.0 90.0)
  end
  begin
     id 19
     name lradius
     direction 1 -4.48965e-011 2.61168e-028   
     length 3.59971   
     axis -180 -30 -90   XYZ
    dof rx
    limits (-10.0 170.0)
  end
  begin
     id 20
     name lwrist
     direction 1 -4.48965e-011 1.58672e-027   
     length 1.79985   
     axis -1.65735e-015 90 90   XYZ
    dof ry
    limits (-180.0 0.0)
 end
  begin
     id 21 
     name lhand
     direction 1 -4.48942e-011 3.17344e-027   
     length 0.62877   
     axis -2.02492e-015 90 90   XYZ
    dof rx rz
    limits (-90.0 90.0)
           (-45.0 45.0)
  end
  begin
     id 22 
     name lfingers
     direction 1 -4.49011e-011 6.34687e-027   
     length 0.506931   
     axis -4.04985e-015 90 90   XYZ
    dof rx
    limits (0.0 90.0)
  end
  begin
     id 23
     name lthumb
     direction 0.707107 -6.34982e-011 0.707107   
     length 0.727854   
     axis -90 45 2.85299e-015   XYZ
    dof rx rz
    limits (-45.0 45.0)
           (-45.0 45.0)
  end
  begin
     id 24 
     name rclavicle
     direction -0.945647 0.32488 0.0143075   
     length 3.52737  
     axis 0 0 0   XYZ 
    dof ry rz
    limits (-10.0 20.0)
           (-20.0 0.0)
  end
  begin
     id 25 
     name rhumerus
     direction -1 -4.48962e-011 1.92182e-027  
     length 5.4902   
     axis -180 30 90   XYZ
    dof rx ry rz
    limits (-90.0 60.0)
           (-90.0 90.0)
           (-90.0 90.0)
  end
  begin
     id 26 
     name rradius
     direction -1 -4.48967e-011 -5.97193e-028   
     length 3.20659   
     axis -180 30 90   XYZ
    dof rx
    limits (-10.0 170.0)
  end
  begin
     id 27 
     name rwrist
     direction -1 -4.48964e-011 1.58672e-027   
     length 1.6033   
     axis -1.65735e-015 -90 -90   XYZ
    dof ry
    limits (-180.0 0.0)
  end
  begin
     id 28
     name rhand
     direction -1 -4.49006e-011 3.17344e-027   
     length 0.691885   
     axis -2.02492e-015 -90 -90   XYZ
    dof rx rz
    limits (-90.0 90.0)
           (-45.0 45.0)
  end
  begin
     id 29
     name rfingers
     direction -1 -4.48908e-011 6.34687e-027   
     length 0.557815   
     axis -4.04985e-015 -90 -90   XYZ
    dof rx
    limits (0.0 90.0)
  end
  begin
     id 30
     name rthumb
     direction -0.707107 -6.34999e-011 0.707107   
     length 0.800915   
     axis -90 -45 -2.85299e-015   XYZ
    dof rx rz
    limits (-45.0 45.0)
           (-45.0 45.0)
  end
:hierarchy
  begin
    root lhipjoint rhipjoint lowerback
    lhipjoint lfemur
    lfemur ltibia
    ltibia lfoot
    lfoot ltoes
    rhipjoint rfemur
    rfemur rtibia
    rtibia rfoot
    rfoot rtoes
    lowerback upperback
    upperback thorax
    thorax lowerneck lclavicle rclavicle
    lowerneck upperneck
    upperneck head
    lclavicle lhumerus
    lhumerus lradius
    lradius lwrist
    lwrist lhand lthumb
    lhand lfingers
    rclavicle rhumerus
    rhumerus rradius
    rradius rwrist
    rwrist rhand rthumb
    rhand rfingers
  end

#!OML:ASF I:\Actors\actors\Patient Classification 1\Patient 1\Session 1\Subject1.ASF
:FULLY-SPECIFIED
:DEGREES
1
root 0.103444 17.5266 8.46573 10.6492 -1.07165 -7.65358
lowerback -0.318421 2.42856 6.17737
upperback -10.4558 3.52155 -1.43708
thorax -10.555 1.09067 -5.29361
lowerneck -4.83474 -15.8804 -11.7465
upperneck 35.6671 -26.5675 10.9802
head 17.1086 -11.8105 1.91263
rclavicle -2.22639e-014 4.05521e-014
rhumerus -51.822 -28.4946 -69.9833
rradius 27.2988
rwrist 46.8773
rhand 10.1982 -34.7177
rfingers 7.12502
rthumb 35.3143 -61.1998
lclavicle -2.22639e-014 4.05521e-014
lhumerus -39.9673 12.9263 75.7539
lradius 17.5782
lwrist -39.5518
lhand -12.8912 -15.7225
lfingers 7.12502
lthumb 13.1981 13.8397
rfemur -4.9101 25.6598 23.0205
rtibia 2.04924
rfoot -12.9301 -28.0564
rtoes 5.17106
lfemur 2.41418 -44.86 -11.321
ltibia -4.06159
lfoot -22.7955 53.3726
ltoes 11.3286
2
root 0.100173 17.5247 8.46321 10.6412 -1.11123 -7.77965
lowerback -0.298084 2.34195 6.19081
upperback -10.3438 3.42263 -1.19495
thorax -10.4649 1.06065 -5.02836
lowerneck -4.06919 -15.8222 -11.4564
upperneck 33.0838 -25.9508 11.0903
head 15.4427 -11.687 2.15908
rclavicle -1.31198e-014 7.95139e-016
rhumerus -51.1888 -30.2456 -68.1416
rradius 25.028
rwrist 49.4551
rhand 9.28362 -33.7883
rfingers 7.12502
rthumb 34.4466 -60.4718
lclavicle -1.31198e-014 7.95139e-016
lhumerus -39.8037 13.1888 76.0745
lradius 17.502
lwrist -38.651
lhand -13.6758 -15.6223
lfingers 7.12502
lthumb 12.4417 13.9874
rfemur -4.9519 25.6627 23.1645
rtibia 2.08659
rfoot -12.8078 -28.0245
rtoes 4.8225
lfemur 2.44162 -44.8078 -11.1723
ltibia -4.09431
lfoot -22.967 53.3803
ltoes 11.573
3
root 0.0967721 17.5227 8.46064 10.6433 -1.14375 -7.91324
lowerback -0.277932 2.25039 6.20607
upperback -10.2421 3.31774 -0.947336
thorax -10.387 1.02679 -4.75896
lowerneck -3.12072 -15.7379 -11.0794
upperneck 30.2443 -25.2998 11.1661
head 13.7528 -11.5535 2.40009
rclavicle 2.78299e-015 -9.54166e-015
rhumerus -50.8361 -32.3914 -65.852
rradius 22.7407
rwrist 52.6234
rhand 8.30364 -32.8486
rfingers 7.12502
rthumb 33.5157 -59.7386
lclavicle 2.78299e-015 -9.54166e-015
lhumerus -39.6933 13.6908 76.2363
lradius 17.3895
lwrist -38.1091
lhand -14.4761 -15.7969
lfingers 7.12502
lthumb 11.67 13.8581
rfemur -4.98288 25.7087 23.322
rtibia 2.13229
rfoot -12.8257 -28.0066
rtoes 4.84903
lfemur 2.51555 -44.9198 -11.0332
ltibia -4.17434
lfoot -23.1574 53.5229
ltoes 11.6672
4
root 0.0923868 17.5201 8.45882 10.6568 -1.1592 -8.09235
lowerback -0.26542 2.16107 6.26427
upperback -10.143 3.21646 -0.713574
thorax -10.3046 0.990044 -4.52912
lowerneck -0.0350553 -15.4981 -9.76319
upperneck 23.5143 -24.0002 11.4618
head 10.119 -11.2975 2.96863
rclavicle -3.97569e-015 -7.15625e-015
rhumerus -52.3466 -38.7048 -58.8516
rradius 18.3688
rwrist 61.3144
rhand 6.38337 -30.8319
rfingers 7.12502
rthumb 31.6886 -58.0999
lclavicle -3.97569e-015 -7.15625e-015
lhumerus -39.5765 14.2019 76.3241
lradius 17.2591
lwrist -37.6945
lhand -15.2706 -16.2151
lfingers 7.12502
lthumb 10.9038 13.4818
rfemur -4.99966 25.8404 23.541
rtibia 2.15938
rfoot -12.9113 -28.0639
rtoes 5.14573
lfemur 2.59915 -45.0722 -10.8311
ltibia -4.28364
lfoot -23.399 53.6882
ltoes 11.8749
5
root 0.0873081 17.5171 8.45805 10.6638 -1.16965 -8.30325
lowerback -0.264403 2.07015 6.34251
upperback -10.0269 3.11161 -0.487609
thorax -10.1949 0.950695 -4.31811
lowerneck -0.621108 -15.4646 -9.86692
upperneck 23.6849 -23.907 11.3404
head 10.2724 -11.2322 2.89823
rclavicle 3.04141e-014 3.18055e-015
rhumerus -51.7935 -38.5258 -59.1017
rradius 18.2886
rwrist 61.3233
rhand 6.32627 -30.7687
rfingers 7.12502
rthumb 31.6342 -58.0473
lclavicle 3.04141e-014 3.18055e-015
lhumerus -39.4287 14.55 76.4585
lradius 17.1491
lwrist -37.1643
lhand -16.1207 -16.6716
lfingers 7.12502
lthumb 10.0837 13.0668
rfemur -4.99097 25.9596 23.8033
rtibia 2.13456
rfoot -12.8513 -28.1284
rtoes 5.09078
lfemur 2.68509 -45.2026 -10.5863
ltibia -4.40441
lfoot -23.6495 53.8436
ltoes 12.207
6
root 0.0809962 17.5127 8.47198 10.7764 -0.91819 -9.07206
lowerback -0.615061 1.98889 7.03366
upperback -9.76576 3.02403 -0.157959
thorax -9.69718 0.892997 -4.31877
lowerneck -1.75064 -15.5422 -9.78352
upperneck 23.9783 -23.9454 11.1136
head 10.5495 -11.1859 2.69637
rclavicle 3.97569e-015 -1.90833e-014
rhumerus -51.1326 -38.8048 -59.2317
rradius 18.1508
rwrist 61.6538
rhand 6.09059 -30.6439
rfingers 7.12502
rthumb 31.4096 -57.9665
lclavicle 3.97569e-015 -1.90833e-014
lhumerus -38.8715 14.4031 77.0227
lradius 16.9544
lwrist -35.575
lhand -17.6766 -17.2676
lfingers 7.12502
lthumb 8.58242 12.538
rfemur -4.91084 25.892 24.7792
rtibia 1.98502
rfoot -12.7086 -28.1628
rtoes 4.72495
lfemur 2.62338 -45.0907 -9.526
ltibia -4.66303
lfoot -23.0983 53.8127
ltoes 11.6063
7
root 0.0801063 17.5145 8.47492 10.8155 -0.841837 -9.17924
lowerback -0.528884 1.97791 7.23418
upperback -9.83184 3.02669 -0.201435
thorax -9.81676 0.86827 -4.48326
lowerneck -1.9653 -15.5687 -9.70236
upperneck 24.1466 -23.9974 11.0648
head 10.6408 -11.1893 2.63869
rclavicle -2.66371e-014 2.38542e-015
rhumerus -51.3148 -38.8873 -59.1262
rradius 18.1183
rwrist 61.7622
rhand 5.98351 -30.6644
rfingers 7.12502
rthumb 31.3076 -58.0068
lclavicle -2.66371e-014 2.38542e-015
lhumerus -38.9384 14.2167 76.937
lradius 16.9674
lwrist -35.5139
lhand -17.5436 -17.1293
lfingers 7.12502
lthumb 8.71076 12.671
rfemur -4.88676 25.8435 24.9181
rtibia 1.91179
rfoot -12.6702 -28.1717
rtoes 4.65689
lfemur 2.57912 -45.1704 -9.36596
ltibia -4.69063
lfoot -22.9205 53.8909
ltoes 11.3309
8
root 0.0791618 17.5154 8.47216 10.8187 -0.84682 -9.18737
lowerback -0.152064 1.9402 7.37943
upperback -10.0501 3.02382 -0.254447
thorax -10.2873 0.824343 -4.645
lowerneck -1.96217 -15.5224 -9.84448
upperneck 24.4221 -23.9675 11.0463
head 10.7566 -11.1791 2.64993
rclavicle -1.66979e-014 2.38542e-014
rhumerus -51.5812 -38.7762 -58.8958
rradius 17.7755
rwrist 61.8931
rhand 5.81868 -30.6837
rfingers 7.12502
rthumb 31.1505 -58.0564
lclavicle -1.66979e-014 2.38542e-014
lhumerus -39.3349 14.1521 76.7132
lradius 17.0017
lwrist -35.4622
lhand -17.3993 -17.1186
lfingers 7.12502
lthumb 8.85003 12.6758
rfemur -4.90794 25.8726 24.9231
rtibia 1.92345
rfoot -12.6962 -28.1997
rtoes 4.71983
lfemur 2.54531 -45.1774 -9.33222
ltibia -4.67312
lfoot -23.026 53.899
ltoes 11.5145
9
root 0.0785415 17.5159 8.47005 10.8146 -0.852139 -9.19513
lowerback 0.0274867 1.82972 7.40912
upperback -10.1588 2.90631 -0.151662
thorax -10.5414 0.754919 -4.55294
lowerneck -2.00817 -15.4008 -10.1749
upperneck 24.6753 -23.7927 11.0007
head 10.8759 -11.1182 2.69556
rclavicle 5.56597e-015 7.95139e-015
rhumerus -51.3873 -38.6435 -58.6566
rradius 17.0632
rwrist 62.2545
rhand 5.4856 -30.6192
rfingers 7.12502
rthumb 30.833 -58.0523
lclavicle 5.56597e-015 7.95139e-015
lhumerus -39.6613 14.5805 76.4801
lradius 16.9577
lwrist -35.5773
lhand -17.3927 -17.2824
lfingers 7.12502
lthumb 8.85637 12.5118
rfemur -4.91207 25.8816 24.9307
rtibia 1.92343
rfoot -12.7191 -28.2034
rtoes 4.81359
lfemur 2.53281 -45.1592 -9.31053
ltibia -4.66852
lfoot -23.0422 53.8871
ltoes 11.5737
10
root 0.0853669 17.5182 8.46621 10.904 -0.888685 -8.89569
lowerback -0.0465663 1.63893 7.10622
upperback -10.2017 2.63819 0.00118781
thorax -10.5939 0.655528 -4.19575
lowerneck -2.07915 -15.1785 -10.6632
upperneck 24.8783 -23.4322 10.9268
head 10.9733 -10.9893 2.78224
rclavicle -1.98785e-016 -7.95139e-015
rhumerus -50.8794 -38.2139 -58.7237
rradius 16.6829
rwrist 62.4824
rhand 5.40549 -30.5447
rfingers 7.12502
rthumb 30.7567 -57.9923
lclavicle -1.98785e-016 -7.95139e-015
lhumerus -39.9286 15.2208 76.4331
lradius 17.0478
lwrist -35.7821
lhand -17.2658 -16.6881
lfingers 7.12502
lthumb 8.97884 13.1008
rfemur -5.05414 25.5981 24.4855
rtibia 1.90421
rfoot -12.666 -27.9624
rtoes 4.77161
lfemur 2.37779 -45.3064 -9.64336
ltibia -4.53964
lfoot -23.217 53.9704
ltoes 11.6914
